<?xml version="1.0" encoding="utf-8"?>
<!-- Generator: Adobe Illustrator 23.0.0, SVG Export Plug-In . SVG Version: 6.00 Build 0)  -->
<svg version="1.1" id="图层_1" xmlns="http://www.w3.org/2000/svg" xmlns:xlink="http://www.w3.org/1999/xlink" x="0px" y="0px"
	 viewBox="0 0 210 50" style="enable-background:new 0 0 210 50;" xml:space="preserve">
<style type="text/css">
	.st0{fill:#FC6D41;}
	.st1{fill:#FC6E40;}
	.st2{fill:#1B2326;}
	.st3{font-family:'SimSun';}
	.st4{font-size:50px;}
</style>
<g>
	<g>
		<path class="st0" d="M11.44,49H4.52c-2.19,0-3.65-2.28-2.72-4.27L20.85,3.89C21.67,2.13,23.43,1,25.38,1h14.81L20.5,43.23
			C18.86,46.75,15.32,49,11.44,49z"/>
		<path class="st1" d="M34.59,49h-6.92c-2.19,0-3.65-2.28-2.72-4.27L43.99,3.89C44.81,2.13,46.58,1,48.52,1h14.81L43.65,43.23
			C42.01,46.75,38.47,49,34.59,49z"/>
		<path class="st2" d="M58.59,49h-6.92c-2.19,0-3.65-2.28-2.72-4.27L67.99,3.89C68.81,2.13,70.58,1,72.52,1h14.81L67.65,43.23
			C66.01,46.75,62.47,49,58.59,49z"/>
		<path class="st2" d="M102.72,42.39l4.83-10.58l-49.77,0.42c-1.94,0.02-3.7,1.16-4.51,2.93l-4.84,10.62
			c-0.61,1.33,0.37,2.84,1.84,2.83l43.45-0.37C97.59,48.21,101.1,45.93,102.72,42.39z"/>
		<text transform="matrix(1 0 0 1 109.2905 43.1934)" class="st3 st4">米拉</text>
	</g>
</g>
</svg>
